<mxfile host="app.diagrams.net" modified="2023-11-20T09:19:02.202Z" agent="Mozilla/5.0 (Windows NT 10.0; Win64; x64) AppleWebKit/537.36 (KHTML, like Gecko) Chrome/119.0.0.0 Safari/537.36" etag="9_Sp-R9rNNf0-vTosPSv" version="22.1.3" type="github">
  <diagram name="第 1 页" id="k0gPwOLRw9djnGXqXjzd">
    <mxGraphModel dx="683" dy="376" grid="1" gridSize="10" guides="1" tooltips="1" connect="1" arrows="1" fold="1" page="1" pageScale="1" pageWidth="1169" pageHeight="827" math="0" shadow="0">
      <root>
        <mxCell id="0" />
        <mxCell id="1" parent="0" />
        <mxCell id="se1ykyosgGhUhjlpKKX1-3" value="" style="endArrow=classic;html=1;rounded=0;" parent="1" edge="1">
          <mxGeometry relative="1" as="geometry">
            <mxPoint x="290" y="360" as="sourcePoint" />
            <mxPoint x="770" y="360" as="targetPoint" />
          </mxGeometry>
        </mxCell>
        <mxCell id="se1ykyosgGhUhjlpKKX1-4" value="&amp;nbsp;时间线&amp;nbsp;" style="edgeLabel;resizable=0;html=1;align=center;verticalAlign=middle;" parent="se1ykyosgGhUhjlpKKX1-3" connectable="0" vertex="1">
          <mxGeometry relative="1" as="geometry" />
        </mxCell>
        <mxCell id="se1ykyosgGhUhjlpKKX1-5" value="攻击判定" style="rounded=1;whiteSpace=wrap;html=1;fillColor=#f8cecc;strokeColor=#b85450;" parent="1" vertex="1">
          <mxGeometry x="400" y="320" width="180" height="20" as="geometry" />
        </mxCell>
        <mxCell id="se1ykyosgGhUhjlpKKX1-6" value="预判" style="rounded=1;whiteSpace=wrap;html=1;fillColor=#fff2cc;strokeColor=#d6b656;" parent="1" vertex="1">
          <mxGeometry x="330" y="320" width="70" height="20" as="geometry" />
        </mxCell>
        <mxCell id="se1ykyosgGhUhjlpKKX1-7" value="" style="shape=flexArrow;endArrow=classic;html=1;rounded=0;" parent="1" edge="1">
          <mxGeometry width="50" height="50" relative="1" as="geometry">
            <mxPoint x="400" y="220" as="sourcePoint" />
            <mxPoint x="400" y="310" as="targetPoint" />
          </mxGeometry>
        </mxCell>
        <mxCell id="se1ykyosgGhUhjlpKKX1-8" value="攻击袭来&lt;br&gt;攻击点和主角模型碰撞" style="text;html=1;strokeColor=none;fillColor=none;align=center;verticalAlign=middle;whiteSpace=wrap;rounded=0;" parent="1" vertex="1">
          <mxGeometry x="330" y="190" width="140" height="30" as="geometry" />
        </mxCell>
        <mxCell id="se1ykyosgGhUhjlpKKX1-10" value="" style="endArrow=classic;html=1;rounded=0;" parent="1" edge="1">
          <mxGeometry width="50" height="50" relative="1" as="geometry">
            <mxPoint x="300" y="400" as="sourcePoint" />
            <mxPoint x="300" y="370" as="targetPoint" />
          </mxGeometry>
        </mxCell>
        <mxCell id="1KzsSzX4MJYPK33emHu5-1" value="提前闪避，未能进入完美闪避，但靠无敌帧躲过攻击" style="text;html=1;strokeColor=none;fillColor=none;align=center;verticalAlign=middle;whiteSpace=wrap;rounded=0;" parent="1" vertex="1">
          <mxGeometry x="290" y="399" width="290" height="30" as="geometry" />
        </mxCell>
        <mxCell id="1KzsSzX4MJYPK33emHu5-2" value="翻滚无敌帧" style="rounded=1;whiteSpace=wrap;html=1;fillColor=#d5e8d4;strokeColor=#82b366;" parent="1" vertex="1">
          <mxGeometry x="300" y="429" width="300" height="20" as="geometry" />
        </mxCell>
        <mxCell id="1KzsSzX4MJYPK33emHu5-3" value="翻滚动作" style="rounded=1;whiteSpace=wrap;html=1;fillColor=#dae8fc;strokeColor=#6c8ebf;" parent="1" vertex="1">
          <mxGeometry x="300" y="460" width="400" height="20" as="geometry" />
        </mxCell>
        <mxCell id="1KzsSzX4MJYPK33emHu5-4" value="可受击后摇" style="rounded=1;whiteSpace=wrap;html=1;fillColor=#f8cecc;strokeColor=#b85450;" parent="1" vertex="1">
          <mxGeometry x="600" y="429" width="100" height="20" as="geometry" />
        </mxCell>
      </root>
    </mxGraphModel>
  </diagram>
</mxfile>
